<?xml version="1.0" ?><svg height="256" viewBox="0 0 256 256" width="256" xmlns="http://www.w3.org/2000/svg"><title/><g id="bat"><g><path d="M90.458,132.477a4.2,4.2,0,0,0,2.567-1.128,3.326,3.326,0,0,0,.935-2.46,3.457,3.457,0,0,0-.806-2.374,3.649,3.649,0,0,0-2.4-1.106q-.946-.107-5.436-.107H81.671v7.283h4.168Q89.555,132.584,90.458,132.477Z"/><path d="M91.919,146.055a3.942,3.942,0,0,0,2.31-1.257,3.869,3.869,0,0,0,.892-2.675,4.112,4.112,0,0,0-.687-2.406,3.888,3.888,0,0,0-1.987-1.439,21.6,21.6,0,0,0-5.64-.451H81.671v8.422h5.887A28.773,28.773,0,0,0,91.919,146.055Z"/><polygon points="119.639 127.406 115.385 139.094 123.979 139.094 119.639 127.406"/><path d="M184,168a8.009,8.009,0,0,0,8-8V112a8.009,8.009,0,0,0-8-8H48a8.009,8.009,0,0,0-8,8v48a8.009,8.009,0,0,0,8,8Zm-50.24-47.941h25.029v5.328h-9.324v26.168h-6.359V125.387H133.76Zm-17.408,0h6.725l12.611,31.5H128.77l-2.75-7.154H113.43l-2.6,7.154h-6.746Zm-41.041,0H87.9a36.392,36.392,0,0,1,5.575.312,8.2,8.2,0,0,1,3.287,1.3,8.087,8.087,0,0,1,2.417,2.632,7.131,7.131,0,0,1,.967,3.685,7.466,7.466,0,0,1-4.426,6.832,8.291,8.291,0,0,1,4.426,2.857,7.586,7.586,0,0,1,1.547,4.748,9.36,9.36,0,0,1-1,4.179,8.417,8.417,0,0,1-2.729,3.244A9.009,9.009,0,0,1,93.7,151.34q-1.59.172-7.67.215H75.312Z"/><path d="M200,8H64A16.018,16.018,0,0,0,48,24V96h8V24a8.009,8.009,0,0,1,8-8H200a8.009,8.009,0,0,1,8,8V191.029a8.1,8.1,0,0,1-.065.971H172a12.013,12.013,0,0,0-12,12v35.935a8.113,8.113,0,0,1-.971.065H64a8.009,8.009,0,0,1-8-8V176H48v56a16.018,16.018,0,0,0,16,16h95.029a15.893,15.893,0,0,0,11.313-4.686l40.972-40.971A15.9,15.9,0,0,0,216,191.029V24A16.018,16.018,0,0,0,200,8Z"/></g></g></svg>