<?xml version="1.0" encoding="UTF-8"?>
<!DOCTYPE svg PUBLIC "-//W3C//DTD SVG 1.1//EN" "http://www.w3.org/Graphics/SVG/1.1/DTD/svg11.dtd">
<svg xmlns="http://www.w3.org/2000/svg" version="1.1" width="512px" height="512px" style="shape-rendering:geometricPrecision; text-rendering:geometricPrecision; image-rendering:optimizeQuality; fill-rule:evenodd; clip-rule:evenodd" xmlns:xlink="http://www.w3.org/1999/xlink">
<g><path style="opacity:0.94" fill="#000000" d="M 379.5,18.5 C 384.422,18.1104 384.756,19.2771 380.5,22C 352.306,42.3608 323.972,62.5275 295.5,82.5C 284.487,70.1513 273.82,57.4846 263.5,44.5C 263.709,43.914 264.043,43.414 264.5,43C 303.059,35.2565 341.392,27.0899 379.5,18.5 Z"/></g>
<g><path style="opacity:0.952" fill="#000000" d="M 397.5,22.5 C 398.376,22.3691 399.043,22.7025 399.5,23.5C 382.609,64.282 365.442,104.949 348,145.5C 333.333,128.167 318.667,110.833 304,93.5C 303.333,92.5 303.333,91.5 304,90.5C 335.5,68.179 366.666,45.5123 397.5,22.5 Z"/></g>
<g><path style="opacity:0.951" fill="#000000" d="M 412.5,22.5 C 420.372,52.1526 428.039,81.9859 435.5,112C 411.39,124.136 386.89,135.636 362,146.5C 361.5,146.167 361,145.833 360.5,145.5C 377.841,104.471 395.174,63.4709 412.5,22.5 Z"/></g>
<g><path style="opacity:0.95" fill="#000000" d="M 425.5,23.5 C 453.031,41.4294 480.031,60.096 506.5,79.5C 486.523,89.6557 466.19,98.9891 445.5,107.5C 438.833,79.5 432.167,51.5 425.5,23.5 Z"/></g>
<g><path style="opacity:0.938" fill="#000000" d="M 254.5,51.5 C 264.802,63.3088 274.969,75.3088 285,87.5C 285.667,88.5 285.667,89.5 285,90.5C 255.333,111.833 225.667,133.167 196,154.5C 214.742,119.878 234.242,85.5447 254.5,51.5 Z"/></g>
<g><path style="opacity:0.95" fill="#000000" d="M 511.5,90.5 C 511.5,91.8333 511.5,93.1667 511.5,94.5C 498.803,134.428 485.97,174.428 473,214.5C 464.932,183.394 457.099,152.228 449.5,121C 450.622,118.418 452.622,116.752 455.5,116C 474.312,107.76 492.979,99.2597 511.5,90.5 Z"/></g>
<g><path style="opacity:0.954" fill="#000000" d="M 292.5,98.5 C 293.496,98.4142 294.329,98.7476 295,99.5C 309.311,117.312 323.811,134.979 338.5,152.5C 293.25,157.437 247.917,161.271 202.5,164C 232.745,142.39 262.745,120.557 292.5,98.5 Z"/></g>
<g><path style="opacity:0.954" fill="#000000" d="M 436.5,124.5 C 437.75,124.577 438.583,125.244 439,126.5C 447.159,158.132 454.825,189.799 462,221.5C 429.167,200.667 396.333,179.833 363.5,159C 387.893,147.468 412.227,135.968 436.5,124.5 Z"/></g>
<g><path style="opacity:0.956" fill="#000000" d="M 325.5,165.5 C 327.942,165.354 328.609,166.187 327.5,168C 293.971,191.695 260.305,215.195 226.5,238.5C 214.167,218.5 201.833,198.5 189.5,178.5C 234.923,173.827 280.256,169.494 325.5,165.5 Z"/></g>
<g><path style="opacity:0.956" fill="#000000" d="M 360.5,171.5 C 393.612,191.895 426.612,212.561 459.5,233.5C 435.411,245.961 411.245,258.294 387,270.5C 377.396,237.755 368.563,204.755 360.5,171.5 Z"/></g>
<g><path style="opacity:0.957" fill="#000000" d="M 348.5,174.5 C 357.785,207.629 366.785,240.962 375.5,274.5C 375.167,275.167 374.833,275.833 374.5,276.5C 345.922,290.705 317.422,305.039 289,319.5C 288.333,318.167 288.333,316.833 289,315.5C 308.848,268.474 328.682,221.474 348.5,174.5 Z"/></g>
<g><path style="opacity:0.957" fill="#000000" d="M 333.5,176.5 C 334.097,176.735 334.43,177.235 334.5,178C 315.229,224.703 295.563,271.203 275.5,317.5C 261.042,294.751 246.708,271.918 232.5,249C 266.234,224.812 299.9,200.645 333.5,176.5 Z"/></g>
<g><path style="opacity:0.956" fill="#000000" d="M 177.5,183.5 C 178.496,183.414 179.329,183.748 180,184.5C 191.749,204.333 203.749,224 216,243.5C 216.667,244.5 216.667,245.5 216,246.5C 174.921,275.623 133.754,304.623 92.5,333.5C 91.5923,332.21 91.759,330.877 93,329.5C 121.443,280.942 149.609,232.275 177.5,183.5 Z"/></g>
<g><path style="opacity:0.954" fill="#000000" d="M 462.5,244.5 C 463.097,244.735 463.43,245.235 463.5,246C 448.92,294.072 433.753,341.905 418,389.5C 407.712,353.678 398.378,317.678 390,281.5C 414.306,269.265 438.472,256.931 462.5,244.5 Z"/></g>
<g><path style="opacity:0.962" fill="#000000" d="M 221.5,255.5 C 223.017,255.511 224.184,256.177 225,257.5C 238.302,279.632 251.802,301.632 265.5,323.5C 208.245,332.156 150.912,339.99 93.5,347C 136.41,316.724 179.076,286.224 221.5,255.5 Z"/></g>
<g><path style="opacity:0.96" fill="#000000" d="M 376.5,287.5 C 378.776,287.756 379.943,289.09 380,291.5C 389.776,328.142 399.11,364.809 408,401.5C 369.416,377.792 330.916,353.959 292.5,330C 320.717,316.059 348.717,301.892 376.5,287.5 Z"/></g>
<g><path style="opacity:0.964" fill="#000000" d="M 255.5,336.5 C 259.29,336.008 259.956,336.841 257.5,339C 215.167,369.833 172.833,400.667 130.5,431.5C 113.672,408.496 97.0049,385.33 80.5,362C 138.926,353.407 197.259,344.907 255.5,336.5 Z"/></g>
<g><path style="opacity:0.961" fill="#000000" d="M 286.5,340.5 C 326.843,364.668 366.843,389.335 406.5,414.5C 380.325,428.755 353.992,442.755 327.5,456.5C 313.048,418.145 299.381,379.479 286.5,340.5 Z"/></g>
<g><path style="opacity:0.969" fill="#000000" d="M 275.5,347.5 C 289.647,385.167 303.314,423.167 316.5,461.5C 297.5,471.667 278.5,481.833 259.5,492C 244.837,492.5 230.17,492.667 215.5,492.5C 235.218,444.063 255.218,395.73 275.5,347.5 Z"/></g>
<g><path style="opacity:0.965" fill="#000000" d="M 259.5,350.5 C 260.497,350.47 261.164,350.97 261.5,352C 242,398.5 222.5,445 203,491.5C 192.894,492.818 182.728,492.818 172.5,491.5C 160.624,474.794 148.957,457.961 137.5,441C 178.331,410.995 218.997,380.829 259.5,350.5 Z"/></g>
<g><path style="opacity:0.969" fill="#000000" d="M -0.5,492.5 C -0.5,491.833 -0.5,491.167 -0.5,490.5C 23.0711,449.743 46.9044,409.076 71,368.5C 87.7458,391.658 104.246,414.991 120.5,438.5C 96.6164,455.935 72.9498,473.602 49.5,491.5C 32.8467,492.499 16.18,492.833 -0.5,492.5 Z"/></g>
<g><path style="opacity:0.954" fill="#000000" d="M 404.5,428.5 C 405.239,428.369 405.906,428.536 406.5,429C 399.74,449.781 393.073,470.614 386.5,491.5C 370.603,492.824 354.77,492.824 339,491.5C 336.555,483.497 333.722,475.664 330.5,468C 355.07,454.55 379.736,441.383 404.5,428.5 Z"/></g>
<g><path style="opacity:0.948" fill="#000000" d="M 125.5,448.5 C 126.822,448.33 127.989,448.663 129,449.5C 139.028,463.362 148.861,477.362 158.5,491.5C 128.172,492.667 97.8388,492.833 67.5,492C 86.7342,477.252 106.068,462.752 125.5,448.5 Z"/></g>
<g><path style="opacity:0.892" fill="#000000" d="M 318.5,473.5 C 319.496,473.414 320.329,473.748 321,474.5C 323.172,480.35 325.338,486.183 327.5,492C 313.167,492.667 298.833,492.667 284.5,492C 295.735,485.551 307.069,479.384 318.5,473.5 Z"/></g>
</svg>
