<svg class="svg-icon" style="width: 1em;height: 1em;vertical-align: middle;fill: currentColor;overflow: hidden;" viewBox="0 0 1024 1024" version="1.1" xmlns="http://www.w3.org/2000/svg"><path d="M378.804907 998.683307c5.8368-1.6384 16.57856-3.1744 23.876266-3.403094l13.2608-0.416426v-17.312427c0-33.05472-21.691733-84.9408-47.254186-113.032533-4.160853-4.573867-18.688-13.93664-32.283307-20.80768-24.101547-12.178773-25.470293-12.438187-54.82496-10.349227-16.554667 1.1776-39.656107 4.747947-51.329707 7.936-72.192 19.718827-183.719253-34.57024-183.87968-89.50784-0.058027-20.333227 8.820053-28.422827 37.870934-34.501973 34.976427-7.314773 59.006293-18.701653 61.6448-29.201067 4.020907-16.029013-1.041067-66.106027-7.9872-78.98112-4.891307-9.076053-6.570667-19.770027-6.621867-42.21952-0.06144-28.685653 0.546133-31.03744 13.236907-51.285333 7.314773-11.6736 20.800853-30.511787 29.969066-41.864534 15.537493-19.2512 16.75264-22.234453 17.9712-44.212906 1.41312-25.4464-8.144213-70.519467-21.121706-99.61472-14.6432-32.836267-12.50304-121.787733 4.5568-189.07136C193.297067 72.157867 227.92192 17.042773 249.371307 23.8592c7.109973 2.2528 7.560533 3.46112 32.044373 85.224107 7.243093 24.180053 8.205653 25.463467 29.805227 39.662933 35.689813 23.466667 68.427093 61.515093 101.502293 117.971627l9.1648 15.643306 34.822827 4.399787c59.050667 7.458133 128.23552 34.24256 166.01088 64.273067 7.714133 6.130347 16.46592 10.386773 19.456 9.458346 2.986667-0.925013 23.630507-9.939627 45.871786-20.026026 48.052907-21.797547 96.4608-38.055253 162.331307-54.51776 69.597867-17.39776 108.424533-24.459947 119.360853-21.715627 9.489067 2.382507 9.540267 2.56 7.348907 26.15296-2.491733 26.815147-17.210027 73.253547-33.307307 105.10336-24.685227 48.841387-85.346987 116.056747-142.98112 158.436693-25.965227 19.094187-27.2896 20.753067-29.422933 36.819627-17.861973 134.560427-54.173013 208.81408-148.46976 303.63648-44.189013 44.4416-47.670613 47.097173-86.715733 66.225493-53.220693 26.074453-80.769707 33.314133-150.3232 39.49568-13.776213 1.2288-15.33952 0.914773-7.072427-1.409706z m-274.41152-192.279894c-0.80896-0.55296-4.655787-3.33824-8.546987-6.191786-6.54336-4.799147-6.710613-4.724053-2.218667 1.00352 2.669227 3.403093 6.516053 6.188373 8.546987 6.188373s3.03104-0.45056 2.218667-1.000107z" fill="#FBC02D" /><path d="M378.804907 998.683307c5.8368-1.6384 16.57856-3.1744 23.876266-3.403094l13.2608-0.416426-0.04096-16.800427c-0.047787-19.575467-6.335147-45.11744-17.083733-69.413547-5.56032-12.571307-6.161067-16.00512-2.228907-12.741973 10.052267 8.342187 9.46176 0.47104-1.11616-14.865067-12.311893-17.84832-30.252373-32.904533-57.613653-48.34304-10.779307-6.085973-23.074133-15.059627-27.327147-19.94752-4.66944-5.372587-11.485867-8.88832-17.237333-8.88832-9.222827 0-9.065813 0.341333 5.28384 11.3664 8.137387 6.253227 14.793387 12.386987 14.793387 13.626027s-13.9264 3.242667-30.948694 4.450987c-17.022293 1.20832-40.4992 4.805973-52.1728 7.994026-72.192 19.718827-183.722667-34.573653-183.87968-89.50784-0.058027-20.333227 8.820053-28.422827 37.870934-34.501973 35.095893-7.34208 59.006293-18.69824 61.661866-29.27616 4.232533-16.861867-1.467733-69.044907-9.51296-87.108267-6.05184-13.595307-7.406933-22.254933-6.355626-40.676693 1.47456-25.920853 11.861333-46.1312 44.445013-86.493867 15.540907-19.2512 16.75264-22.234453 17.974613-44.212906 1.41312-25.4464-8.144213-70.519467-21.121706-99.61472-14.6432-32.836267-12.50304-121.787733 4.553386-189.07136C193.30048 72.154453 227.918507 17.042773 249.378133 23.855787c7.10656 2.2528 7.55712 3.46112 32.04096 85.224106 7.243093 24.180053 8.205653 25.463467 29.801814 39.662934 35.693227 23.466667 68.430507 61.515093 101.505706 117.971626l9.1648 15.643307 34.822827 4.399787c59.050667 7.458133 128.232107 34.24256 166.01088 64.273066 7.714133 6.130347 16.46592 10.386773 19.456 9.458347 2.986667-0.925013 23.630507-9.939627 45.868373-20.026027 48.05632-21.797547 96.4608-38.055253 162.338134-54.521173 69.59104-17.394347 108.42112-24.456533 119.35744-21.712213 9.489067 2.382507 9.540267 2.56 7.348906 26.15296-2.491733 26.815147-17.210027 73.253547-33.307306 105.10336-24.685227 48.837973-85.346987 116.056747-142.98112 158.436693-25.965227 19.094187-27.2896 20.753067-29.422934 36.819627-17.865387 134.557013-54.173013 208.81408-148.46976 303.63648-44.192427 44.4416-47.670613 47.097173-86.715733 66.225493-53.220693 26.074453-80.77312 33.314133-150.3232 39.49568-13.776213 1.225387-15.33952 0.914773-7.072427-1.41312z m97.235626-60.613974c51.930453-20.026027 101.024427-59.183787 132.334934-105.550506 36.92544-54.6816 63.597227-138.38336 73.17504-229.62176l4.573866-43.5712 24.1152-21.377707c26.043733-23.0912 55.45984-64.52224 75.502934-106.3424 15.387307-32.109227 15.7696-43.076267 1.76128-50.31936-22.091093-11.424427-93.627733-3.611307-157.907627 17.240747-44.294827 14.370133-50.3808 15.015253-67.06176 7.099733l-11.874987-5.635413-25.797973 17.104213c-14.189227 9.407147-43.20256 34.225493-64.474453 55.15264-38.18496 37.57056-47.981227 44.05248-47.981227 31.761067 0-8.748373 48.923307-62.610773 84.08064-92.573014 23.005867-19.6096 31.696213-24.948053 40.676693-24.989013 8.280747-0.04096 10.011307-0.94208 6.304427-3.290453-2.812587-1.774933-12.434773-2.36544-21.387947-1.303894-13.714773 1.621333-20.135253 0.01024-40.86784-10.274133-13.52704-6.703787-41.30816-19.213653-61.73696-27.79136-33.6384-14.1312-39.8336-18.264747-65.774933-43.91936-15.752533-15.57504-38.649173-43.441493-50.88256-61.92128-26.0096-39.294293-33.73056-48.387413-46.895787-55.23456-22.89664-11.912533-38.690133 6.95296-50.530986 60.368213-7.2704 32.781653-5.584213 100.46464 3.69664 148.650667 8.56064 44.45184 3.816107 63.634773-24.948054 100.877653-31.696213 41.045333-36.727467 67.136853-21.46304 111.332694 11.414187 33.047893 16.64 67.495253 12.0832 79.6672-7.970133 21.2992-41.857707 45.9776-63.13984 45.9776-10.36288 0-10.89536 0.631467-8.7552 10.376533 2.706773 12.32896-8.236373 46.216533-14.926506 46.216533-6.724267 0-5.39648 5.9392 3.10272 13.858134 12.096853 11.270827 37.751467 21.8112 57.3952 23.58272 15.568213 1.399467 16.889173 1.068373 9.301333-2.348374a2999.043413 2999.043413 0 0 1-19.452587-8.874666l-10.60864-4.887894 14.144854 2.60096c23.528107 4.32128 72.727893 2.41664 99.734186-3.863893 14.001493-3.252907 34.235733-5.91872 44.960427-5.91872 36.867413 0 85.056853 25.012907 113.3056 58.811733 14.281387 17.083733 37.215573 64.846507 37.29408 77.656747 0.088747 15.059627 2.92864 15.1552 38.918827 1.273173z m-19.421866-146.466133c-116.374187-20.432213-130.348373-23.278933-135.560534-27.603627-9.693867-8.045227 9.045333-8.065707 108.465494-0.119466 53.794133 4.3008 98.7648 6.700373 99.928746 5.33504 1.163947-1.368747 3.81952-19.729067 5.901654-40.799574 2.082133-21.07392 4.744533-39.2704 5.911893-40.441173 5.829973-5.829973 9.478827 9.2672 12.980907 53.732693 4.328107 54.900053 3.467947 57.73312-18.28864 60.279467-6.673067 0.77824-42.376533-3.8912-79.33952-10.38336zM275.790507 689.9712c-2.860373-4.62848 7.048533-12.68736 38.877866-31.617707 33.184427-19.735893 73.68704-33.8944 111.26784-38.898346 45.7728-6.0928 58.422613 1.501867 20.8896 12.547413-14.35648 4.225707-20.483413 8.379733-27.337386 18.527573-11.291307 16.725333-32.733867 32.26624-48.636587 35.249494-6.833493 1.28-23.07072 0.320853-36.08576-2.133334-21.804373-4.11648-24.951467-3.8912-40.1408 2.82624-11.083093 4.901547-17.257813 6.048427-18.834773 3.498667z m-64.843094-69.113173c-14.08-19.974827-17.34656-39.819947-9.60512-58.34752 3.72736-8.925867 4.816213-19.022507 3.464534-32.129707-2.116267-20.503893 2.092373-27.716267 11.58144-19.84512 2.901333 2.409813 10.9568 14.5408 17.89952 26.95168 14.848 26.548907 16.923307 51.3024 6.853973 81.619627-7.816533 23.53152-14.564693 23.924053-30.194347 1.75104z" fill="#FF9800" /><path d="M378.804907 998.683307c5.8368-1.6384 16.57856-3.1744 23.876266-3.403094 8.00768-0.252587 13.277867-2.167467 13.294934-4.840106 0.017067-2.48832 18.176-10.46528 41.560746-18.25792 52.527787-17.503573 86.104747-32.94208 116.55168-53.59616 99.0208-67.167573 163.587413-192.344747 163.693227-317.371734 0.034133-35.682987 1.092267-37.376 37.0176-59.0848 28.859733-17.442133 104.492373-93.518507 104.492373-105.106773 0-1.83296 4.973227-10.837333 11.04896-20.012373 13.6192-20.565333 35.4304-79.622827 37.5296-101.632 1.4848-15.571627 1.10592-16.384-8.482133-18.21696-35.273387-6.73792-137.46176 19.07712-227.560107 57.48736-66.02752 28.14976-63.70304 27.921067-95.924906 9.530026-53.10464-30.303573-107.748693-51.58912-155.869867-60.719786-15.89248-3.013973-29.1328-5.85728-29.416107-6.31808-4.154027-6.7072-45.540693-61.453653-55.4496-73.345707-7.294293-8.7552-25.18016-26.190507-39.74144-38.74816-28.330667-24.425813-39.335253-41.1136-51.278506-77.748907-9.03168-27.706027-16.172373-39.185067-24.251734-38.97344-3.362133 0.088747-12.78976 7.806293-20.95104 17.148587-16.657067 19.06688-25.99936 47.813973-33.28 102.4-5.717333 42.898773-2.020693 136.76544 7.471787 189.781333 10.68032 59.644587 5.874347 80.59904-25.146027 109.646507l-15.110826 14.148267 14.824106-18.193067c21.30944-26.15296 25.361067-35.669333 25.378134-59.620693 0.01024-22.20032-13.47584-78.92992-23.27552-97.87392-7.799467-15.08352-10.69056-83.79392-5.256534-124.95872 12.834133-97.1776 55.528107-186.248533 84.821334-176.954027 7.109973 2.2528 7.560533 3.46112 32.044373 85.224107 7.243093 24.180053 8.205653 25.463467 29.805227 39.662933 35.689813 23.466667 68.427093 61.515093 101.502293 117.97504l9.1648 15.639893 34.679467 4.38272c59.97568 7.574187 131.7888 36.12672 172.32896 68.51584l9.581226 7.652694 32.078507-14.906027c17.64352-8.195413 45.960533-20.258133 62.9248-26.801493 64.781653-24.9856 217.064107-61.78816 236.008107-57.0368 9.796267 2.461013 9.806507 2.491733 7.601493 26.217813-2.491733 26.815147-17.206613 73.253547-33.307307 105.106773-24.685227 48.837973-85.346987 116.053333-142.977706 158.43328-25.965227 19.094187-27.293013 20.753067-29.422934 36.82304-17.865387 134.5536-54.176427 208.810667-148.46976 303.63648-44.192427 44.438187-47.674027 47.09376-86.719146 66.22208-53.220693 26.077867-80.769707 33.314133-150.3232 39.499094-13.7728 1.221973-15.336107 0.91136-7.072427-1.41312z m-224.597334-158.057814c-28.194133-7.55712-70.447787-29.392213-84.957866-43.89888-24.712533-24.715947-30.788267-53.783893-14.353067-68.662613 3.66592-3.314347 17.124693-8.219307 29.914453-10.891947 29.969067-6.270293 50.51392-15.540907 65.348267-29.484373 6.526293-6.13376 14.086827-11.154773 16.800427-11.154773 17.175893 0-21.244587 39.625387-44.588374 45.98784-8.751787 2.38592-17.885867 4.89472-20.29568 5.577386-3.21536 0.907947-3.457707 3.672747-0.907946 10.376534 4.068693 10.704213-2.75456 30.235307-15.21664 43.55072l-7.79264 8.318293 10.615466 8.608427c37.696853 30.583467 80.715093 36.44416 152.183467 20.739413 44.014933-9.669973 45.25056-9.74848 56.7296-3.570347 21.036373 11.332267 17.865387 14.834347-15.568213 17.199787-16.85504 1.191253-39.400107 4.580693-50.097494 7.533227-24.159573 6.669653-52.401493 6.587733-77.81376-0.22528z m353.696427-45.841066c-2.914987-0.651947-40.7552-6.898347-84.084053-13.878614-83.715413-13.492907-90.251947-14.967467-87.319894-19.715413 1.96608-3.181227 3.549867-3.10272 117.88288 5.717333 39.6288 3.054933 74.028373 4.795733 76.45184 3.863894 2.8672-1.099093 5.290667-14.148267 6.935894-37.317974 2.4576-34.7136 6.915413-47.79008 10.704213-31.423146 1.030827 4.457813 3.36896 24.702293 5.195093 44.987733 4.1984 46.626133 2.73408 49.90976-22.016 49.363627-10.14784-0.22528-20.834987-0.945493-23.753386-1.59744z m-214.500693-119.586134c33.437013-30.498133 112.366933-58.098347 159.003306-55.6032 8.987307 0.48128 4.430507 6.161067-7.24992 9.035094-5.369173 1.32096-19.411627 12.499627-31.208106 24.838826-26.760533 27.99616-40.861013 32.93184-74.799787 26.187094-18.41152-3.662507-24.80128-3.65568-33.95584 0.023893-23.381333 9.396907-25.941333 8.424107-11.789653-4.481707z m-80.257707-61.32736c-14.206293-22.388053-15.762773-33.430187-7.499093-53.20704 3.92192-9.386667 4.79232-18.42176 3.085653-32.068266-2.136747-17.114453-1.737387-18.875733 4.037973-17.762987 3.525973 0.682667 12.014933 10.786133 18.868907 22.452907 15.616 26.606933 18.592427 54.4768 8.649387 81.053013-3.577173 9.567573-8.229547 17.967787-10.3424 18.670933-2.112853 0.703147-9.673387-7.908693-16.800427-19.13856z m202.796373-112.298666c0-6.877867 43.810133-56.265387 69.36576-78.19264 31.32416-26.883413 40.977067-33.344853 49.810774-33.344854 14.39744 0 8.861013 9.489067-15.7184 26.938027-13.131093 9.3184-40.475307 33.334613-60.767574 53.367467-20.288853 20.02944-38.1952 36.416853-39.789226 36.416853s-2.901333-2.33472-2.901334-5.188267z" fill="#263238" /></svg>