<?xml version="1.0" encoding="UTF-8"?>
<!DOCTYPE svg PUBLIC "-//W3C//DTD SVG 1.1//EN" "http://www.w3.org/Graphics/SVG/1.1/DTD/svg11.dtd">
<svg xmlns="http://www.w3.org/2000/svg" version="1.1" width="720px" height="720px" style="shape-rendering:geometricPrecision; text-rendering:geometricPrecision; image-rendering:optimizeQuality; fill-rule:evenodd; clip-rule:evenodd" xmlns:xlink="http://www.w3.org/1999/xlink">
<g><path style="opacity:0.974" fill="#070604" d="M 335.5,45.5 C 341.5,45.5 347.5,45.5 353.5,45.5C 351.805,56.5776 354.805,66.0776 362.5,74C 369.851,77.1781 375.684,75.3448 380,68.5C 384.03,61.7137 385.863,54.3803 385.5,46.5C 391.618,46.8477 397.618,47.8477 403.5,49.5C 400.237,60.0567 401.403,70.0567 407,79.5C 413.205,84.8703 419.205,84.537 425,78.5C 430.118,71.5948 433.618,63.9281 435.5,55.5C 441.192,57.2307 446.859,59.064 452.5,61C 446.327,70.8286 445.493,80.9952 450,91.5C 455.052,97.1743 460.886,98.0076 467.5,94C 474.621,88.238 479.621,81.0714 482.5,72.5C 487.853,74.8395 492.853,77.6729 497.5,81C 490.354,89.764 488.187,99.5973 491,110.5C 494.277,116.109 499.11,117.942 505.5,116C 514.657,111.544 521.491,104.71 526,95.5C 530.815,98.8182 535.315,102.485 539.5,106.5C 536.667,110.833 533.833,115.167 531,119.5C 527.79,126.222 527.79,132.888 531,139.5C 534.831,143.128 539.331,144.295 544.5,143C 552.975,139.852 559.641,134.518 564.5,127C 565.5,126.333 566.5,126.333 567.5,127C 571.5,131 575.5,135 579.5,139C 570.523,144.982 565.189,153.315 563.5,164C 565.024,173.86 570.69,177.527 580.5,175C 588.012,172.809 594.512,168.975 600,163.5C 604.511,167.35 608.344,171.85 611.5,177C 602.519,181.314 596.352,188.147 593,197.5C 591.118,208.123 595.618,213.457 606.5,213.5C 615.164,213 622.83,210 629.5,204.5C 633.24,208.967 636.24,213.967 638.5,219.5C 631.259,222.705 624.759,227.038 619,232.5C 611.068,246.301 615.068,253.968 631,255.5C 638.169,255.11 644.836,253.11 651,249.5C 652.973,254.613 654.806,259.78 656.5,265C 650.321,267.423 644.321,270.423 638.5,274C 631.548,279.327 629.715,285.827 633,293.5C 637.49,298.057 642.99,300.39 649.5,300.5C 654.916,299.87 660.249,298.87 665.5,297.5C 667.275,303.374 668.275,309.374 668.5,315.5C 658.099,315.452 649.265,319.119 642,326.5C 637.78,335.905 640.613,342.405 650.5,346C 657.051,348.372 663.718,348.872 670.5,347.5C 670.5,353.5 670.5,359.5 670.5,365.5C 659.814,364.211 650.314,366.878 642,373.5C 637.518,382.728 640.018,389.561 649.5,394C 655.51,396.868 661.843,398.035 668.5,397.5C 667.806,403.673 666.473,409.673 664.5,415.5C 658.218,414.374 651.885,414.207 645.5,415C 632.872,417.546 629.372,424.379 635,435.5C 641.413,441.457 648.913,445.457 657.5,447.5C 656.103,452.192 654.603,456.859 653,461.5C 652.439,462.022 651.772,462.355 651,462.5C 643.407,458.91 635.574,458.077 627.5,460C 617.785,464.621 615.952,471.455 622,480.5C 627.031,485.93 632.864,490.264 639.5,493.5C 637.527,498.779 635.027,503.779 632,508.5C 624.71,502.984 616.543,501.151 607.5,503C 599.557,506.558 597.39,512.391 601,520.5C 605.16,526.656 609.993,532.156 615.5,537C 612.899,541.272 609.899,545.272 606.5,549C 602.694,547.591 599.027,545.591 595.5,543C 587.93,539.18 580.764,539.68 574,544.5C 572.061,549.473 572.061,554.473 574,559.5C 576.538,564.874 580.038,569.54 584.5,573.5C 581.349,577.151 578.016,580.651 574.5,584C 571.158,583.703 568.491,582.036 566.5,579C 559.327,573.615 551.66,572.615 543.5,576C 538.475,583.252 538.309,590.752 543,598.5C 545.029,601.029 546.862,603.696 548.5,606.5C 544.708,610.56 540.374,613.893 535.5,616.5C 532.644,614.478 530.311,611.978 528.5,609C 522.102,602.974 514.769,601.307 506.5,604C 503.367,607.561 501.701,611.728 501.5,616.5C 502.53,622.731 504.03,628.731 506,634.5C 502.076,637.213 497.909,639.547 493.5,641.5C 489.722,636.22 485.389,631.386 480.5,627C 471.37,621.928 464.87,624.095 461,633.5C 460.104,640.117 460.604,646.617 462.5,653C 462.095,653.945 461.428,654.612 460.5,655C 456.129,656.401 451.796,657.901 447.5,659.5C 444.888,650.726 439.555,644.226 431.5,640C 423.872,638.932 418.706,642.099 416,649.5C 414.334,655.147 414.167,660.813 415.5,666.5C 410.429,668.148 405.262,669.482 400,670.5C 397.194,665.107 394.194,659.774 391,654.5C 383.155,646.255 376.155,646.922 370,656.5C 367.132,661.813 365.965,667.479 366.5,673.5C 360.833,673.5 355.167,673.5 349.5,673.5C 349.03,666.258 346.864,659.592 343,653.5C 333.093,645.92 325.427,647.92 320,659.5C 318.69,663.07 317.857,666.737 317.5,670.5C 311.822,669.915 306.155,669.249 300.5,668.5C 300.893,661.404 299.393,654.737 296,648.5C 291.096,641.485 285.262,640.652 278.5,646C 274.195,650.799 270.529,655.966 267.5,661.5C 262.833,659.833 258.167,658.167 253.5,656.5C 253.49,651.289 253.323,645.956 253,640.5C 250.02,629.593 243.52,626.76 233.5,632C 228.759,635.702 224.593,639.869 221,644.5C 216.435,642.134 211.935,639.634 207.5,637C 212.985,628.008 212.652,619.341 206.5,611C 202.361,608.144 198.028,607.81 193.5,610C 188.703,613.132 184.203,616.632 180,620.5C 176.177,618.015 172.344,615.515 168.5,613C 167.941,612.275 167.608,611.442 167.5,610.5C 169.969,605.426 171.636,600.093 172.5,594.5C 171.964,586.964 167.964,582.631 160.5,581.5C 153.247,582.876 147.08,586.209 142,591.5C 137.352,588.019 133.185,584.019 129.5,579.5C 134.858,573.464 137.358,566.464 137,558.5C 135.017,552.425 130.85,549.758 124.5,550.5C 118.767,550.467 113.6,552.133 109,555.5C 106.719,554.224 104.719,552.557 103,550.5C 101.533,547.734 99.6998,545.234 97.5,543C 101.05,539.117 104.217,534.951 107,530.5C 110.717,519.042 106.551,512.709 94.5,511.5C 89.6792,511.829 85.1792,513.163 81,515.5C 77.4132,511.333 74.5798,506.666 72.5,501.5C 78.2558,497.243 82.7558,491.909 86,485.5C 87.7387,476.89 84.2387,471.723 75.5,470C 70.1623,469.121 64.9957,469.621 60,471.5C 58.0683,466.538 56.235,461.538 54.5,456.5C 58.8937,453.88 63.0603,450.88 67,447.5C 74.0603,438.466 72.5603,431.299 62.5,426C 56.8607,425.04 51.194,424.207 45.5,423.5C 44.5548,418.999 43.5548,414.499 42.5,410C 42.6448,409.228 42.9781,408.561 43.5,408C 53.5862,406.24 60.2529,400.573 63.5,391C 61.513,385.013 57.513,381.013 51.5,379C 47.4963,378.119 43.4963,377.286 39.5,376.5C 38.1667,371.167 38.1667,365.833 39.5,360.5C 47.7769,359.919 54.6102,356.586 60,350.5C 62.7838,343.849 61.2838,338.349 55.5,334C 50.6643,331.054 45.4976,328.888 40,327.5C 39.8325,322.828 40.1658,318.161 41,313.5C 48.2933,312.212 55.4599,310.045 62.5,307C 67.5959,302.752 68.7625,297.585 66,291.5C 60.9229,285.712 54.7563,281.545 47.5,279C 48.9079,273.869 50.2413,268.702 51.5,263.5C 58.1637,265.341 64.8304,265.508 71.5,264C 80.073,260.945 82.9064,255.112 80,246.5C 76.7452,240.448 71.9119,236.115 65.5,233.5C 64.3861,232.277 64.2195,230.944 65,229.5C 67.0872,226.327 68.9205,222.994 70.5,219.5C 71.1667,219.167 71.8333,218.833 72.5,218.5C 77.4406,220.694 82.6073,222.027 88,222.5C 99.547,222.379 104.214,216.713 102,205.5C 99.0823,198.987 94.7489,193.654 89,189.5C 88.3333,188.5 88.3333,187.5 89,186.5C 91.3608,182.433 94.1941,178.767 97.5,175.5C 104.574,181.102 112.574,183.268 121.5,182C 129.519,178.078 131.686,171.911 128,163.5C 125.462,158.126 121.962,153.46 117.5,149.5C 120.715,145.573 124.049,141.74 127.5,138C 128.5,137.333 129.5,137.333 130.5,138C 138.27,146.82 147.604,149.487 158.5,146C 162.305,141.909 163.472,137.076 162,131.5C 160.293,126.42 157.793,121.753 154.5,117.5C 158.56,112.906 163.227,109.406 168.5,107C 173.594,115.377 180.927,120.544 190.5,122.5C 198.167,120.494 202.167,115.494 202.5,107.5C 201.547,100.64 199.214,94.3065 195.5,88.5C 199.878,84.8879 204.711,81.8879 210,79.5C 213.531,90.202 220.698,96.8687 231.5,99.5C 239.838,97.3085 243.838,91.8085 243.5,83C 243.12,77.2649 241.786,71.7649 239.5,66.5C 244.49,64.5026 249.49,62.5026 254.5,60.5C 257.026,69.0503 261.693,76.2169 268.5,82C 276.873,86.2337 283.04,84.067 287,75.5C 289.114,67.7698 288.947,60.1032 286.5,52.5C 291.869,50.1576 297.535,48.8242 303.5,48.5C 303.297,59.2588 307.297,68.0921 315.5,75C 323.686,78.1731 329.519,75.6731 333,67.5C 335.24,60.3563 336.073,53.023 335.5,45.5 Z M 341.5,105.5 C 376.335,103.395 410.002,108.561 442.5,121C 458.115,127.623 470.282,138.123 479,152.5C 483.906,165.426 482.572,177.759 475,189.5C 460.365,208.404 442.198,222.904 420.5,233C 353.278,265.87 282.611,277.537 208.5,268C 191.097,265.382 176.264,257.882 164,245.5C 155.648,232.573 154.314,218.906 160,204.5C 168.135,187.361 179.635,172.861 194.5,161C 238.063,128.2 287.063,109.7 341.5,105.5 Z M 510.5,192.5 C 528.144,193.639 536.311,202.973 535,220.5C 527.575,237.419 515.742,241.585 499.5,233C 486.324,221.022 486.324,209.022 499.5,197C 503.053,194.879 506.72,193.379 510.5,192.5 Z M 551.5,251.5 C 562.008,251.291 571.341,254.458 579.5,261C 591.049,272.253 598.882,285.753 603,301.5C 620.55,390.31 599.55,468.643 540,536.5C 528.528,548.643 515.361,558.477 500.5,566C 470.833,578.119 450.333,569.285 439,539.5C 432.441,514.859 430.774,489.859 434,464.5C 441.24,402.766 461.907,346.099 496,294.5C 506.588,279.244 519.755,266.744 535.5,257C 540.74,254.534 546.073,252.7 551.5,251.5 Z M 146.5,273.5 C 166.312,272.479 175.479,281.812 174,301.5C 167.754,315.703 157.254,320.203 142.5,315C 128.651,304.694 126.984,292.694 137.5,279C 140.564,277.141 143.564,275.308 146.5,273.5 Z M 350.5,297.5 C 383.065,298.182 404.565,313.848 415,344.5C 420.902,378.532 408.402,403.032 377.5,418C 345.532,427.678 320.032,418.845 301,391.5C 286.303,360.852 291.469,334.019 316.5,311C 326.7,303.438 338.033,298.938 350.5,297.5 Z M 138.5,342.5 C 151.619,342.017 164.286,344.184 176.5,349C 205.452,361.643 231.452,378.643 254.5,400C 290.164,432.321 318.998,469.821 341,512.5C 347.34,525.521 351.674,539.188 354,553.5C 357.269,570.004 353.436,584.504 342.5,597C 332.263,604.912 320.596,608.746 307.5,608.5C 280.34,606.058 255.007,597.891 231.5,584C 173.752,549.693 133.585,500.86 111,437.5C 104.185,417.953 102.185,397.953 105,377.5C 108.643,358.362 119.81,346.695 138.5,342.5 Z M 396.5,544.5 C 410.749,542.868 419.916,548.868 424,562.5C 424.133,581.7 414.633,590.534 395.5,589C 380.225,582.176 375.725,571.009 382,555.5C 385.857,550.468 390.69,546.801 396.5,544.5 Z"/></g>
</svg>
