<svg xmlns="http://www.w3.org/2000/svg" viewBox="0 0 120 60" width="90" height="60" fill="#f1592a" style="display:block; margin:auto;">
  <path d="M38.1 76.41C17.57 76.41 0.16 59.07 0 38.41A37.66 37.66 0 0 1 11 11.54 38.29 38.29 0 0 1 38.2 0V0A37.75 37.75 0 0 1 65 11.13 37.79 37.79 0 0 1 76.41 37.85 38.39 38.39 0 0 1 38.41 76.41ZM38.22 2A36.3 36.3 0 0 0 12.45 12.95 35.67 35.67 0 0 0 2 38.39c0.15 19.58 16.65 36 36.09 36h0.26A36.39 36.39 0 0 0 74.41 37.86 35.81 35.81 0 0 0 63.59 12.55 35.64 35.64 0 0 0 38.22 2Z"/>
  <path d="M8.57 49.38V27.06H14v2H11.12V47.42H14v2z"/>
  <path d="M27 38c0 4.07-2.47 6.39-5.82 6.39-3.35 0-5.58-2.61-5.58-6.18 0-3.73 2.34-6.36 5.76-6.36 3.42 0 5.64 2.74 5.64 6.15zM17.94 38.18c0 2.47 1.24 4.43 3.37 4.43 2.13 0 3.35-2 3.35-4.52 0-2.29-1.13-4.45-3.35-4.45-2.22 0-3.39 2.09-3.39 4.59z"/>
  <path d="M28.88 32.27A18.52 18.52 0 0 1 32.1 32a5.75 5.75 0 0 1 3.48 0.77 2.56 2.56 0 0 1 1.26 2.27 2.82 2.82 0 0 1-2 2.63v0a3.06 3.06 0 0 1 2.45 3 3.15 3.15 0 0 1-1.17 2.5c-0.86 0.76-2.29 1.13-4.5 1.13A21.41 21.41 0 0 1 28.9 44.14ZM31.08 37.73h1.13c1.53 0 2.39-0.72 2.39-1.75 0-1.03-0.86-1.66-2.27-1.66a6 6 0 0 0-1.26 0.09zM31.08 43.31a9.75 9.75 0 0 0 1.17 0.05c1.42 0 2.68-0.54 2.68-2 0-1.46-1.22-2-2.75-2h-1.1z"/>
  <path d="M41.66 32.11h2.21V40c0 3.35-1.62 4.47-4 4.47a5.91 5.91 0 0 1-1.41-0.18l0.27-1.78a4.85 4.85 0 0 0 1.37 0.22c1.26 0 2-0.58 2-2.68z"/>
  <path d="M50.16 38.68v1.53h-4.6v-1.53z"/>
  <path d="M60.9 43.88a7.67 7.67 0 0 1-3.13 0.54c-3.85 0-6.19-2.41-6.19-6.1a6.1 6.1 0 0 1 6.48-6.41 7 7 0 0 1 3 0.54l-0.49 1.76a5.89 5.89 0 0 0-2.38-0.47c-2.47 0-4.25 1.55-4.25 4.47 0 2.66 1.57 4.38 4.23 4.38a6.2 6.2 0 0 0 2.41-0.45z"/>
  <path d="M67.84 27v22.38h-5.43v-2h2.88V29h-2.88v-2z"/>
</svg>
