<?xml version="1.0" encoding="iso-8859-1"?>
<!-- Uploaded to: SVG Repo, www.svgrepo.com, Generator: SVG Repo Mixer Tools -->
<svg height="800px" width="800px" version="1.1" id="Layer_1" xmlns="http://www.w3.org/2000/svg" xmlns:xlink="http://www.w3.org/1999/xlink" 
	 viewBox="0 0 511.982 511.982" xml:space="preserve">
<polygon style="fill:red;" points="255.991,42.671 255.991,469.311 511.982,362.661 "/>
<polygon style="fill:#red;" points="255.991,42.671 0,362.661 255.991,469.311 "/>
<g style="opacity:0.1;">
	<path d="M287.99,391.987c-4.172,0-8.141-2.469-9.844-6.563c-2.266-5.438,0.313-11.688,5.749-13.953l138.215-57.592
		c5.438-2.266,11.672,0.313,13.938,5.75s-0.298,11.688-5.734,13.953L292.1,391.174C290.755,391.721,289.364,391.987,287.99,391.987z
		"/>
	<path d="M287.99,327.989c-4.172,0-8.141-2.469-9.844-6.563c-2.266-5.438,0.313-11.688,5.749-13.953l99.81-41.592
		c5.438-2.266,11.688,0.313,13.954,5.75c2.265,5.438-0.313,11.688-5.75,13.953l-99.81,41.592
		C290.755,327.723,289.364,327.989,287.99,327.989z"/>
	<path d="M287.99,263.991c-4.172,0-8.141-2.469-9.844-6.563c-2.266-5.437,0.313-11.687,5.749-13.952l61.405-25.593
		c5.438-2.266,11.687,0.313,13.953,5.75c2.265,5.437-0.313,11.687-5.75,13.952l-61.404,25.577
		C290.755,263.725,289.364,263.991,287.99,263.991z"/>
	<path d="M287.99,199.993c-4.172,0-8.141-2.469-9.844-6.562c-2.266-5.438,0.297-11.688,5.734-13.953l23.03-9.594
		c5.438-2.265,11.688,0.313,13.953,5.75c2.265,5.438-0.313,11.688-5.75,13.953l-23.015,9.593
		C290.755,199.727,289.364,199.993,287.99,199.993z"/>
</g>
<g style="opacity:1;">
	<path d="M223.992,391.987c-1.375,0-2.766-0.266-4.109-0.813L81.669,333.583c-5.438-2.266-8-8.516-5.734-13.953
		s8.5-8.016,13.938-5.75l138.214,57.592c5.438,2.266,8.016,8.516,5.75,13.953C232.133,389.518,228.164,391.987,223.992,391.987z"/>
	<path d="M223.992,327.989c-1.375,0-2.766-0.266-4.109-0.813l-99.809-41.592c-5.438-2.266-8.016-8.516-5.75-13.953
		s8.516-8.016,13.952-5.75l99.825,41.592c5.438,2.266,8,8.516,5.734,13.953C232.133,325.52,228.164,327.989,223.992,327.989z"/>
	<path d="M223.992,263.991c-1.375,0-2.766-0.266-4.109-0.828l-61.404-25.577c-5.438-2.266-8.016-8.516-5.75-13.952
		c2.266-5.438,8.516-8.016,13.953-5.75l61.404,25.593c5.438,2.266,8.016,8.516,5.75,13.952
		C232.133,261.522,228.164,263.991,223.992,263.991z"/>
	<path d="M223.992,199.993c-1.375,0-2.766-0.266-4.094-0.813l-23.03-9.593c-5.438-2.266-8.016-8.516-5.75-13.953
		s8.516-8.015,13.953-5.75l23.03,9.594c5.438,2.266,8,8.516,5.734,13.953C232.133,197.524,228.164,199.993,223.992,199.993z"/>
</g>
</svg>